<svg preserveAspectRatio="xMidYMid meet" viewBox="134.587 127.40000000000002 234 193" xmlns="http://www.w3.org/2000/svg" version="1.0" style="max-height: 500px" width="234" height="193">
<metadata>
Created by potrace 1.16, written by Peter Selinger 2001-2019
</metadata>
<g stroke="none" fill="#000000" transform="translate(0.000000,500.000000) scale(0.100000,-0.100000)">
<path d="M2710 3690 c-7 -27 -29 -60 -61 -94 -27 -28 -49 -55 -49 -61 0 -26&#10;-53 -116 -100 -170 -69 -80 -189 -321 -214 -430 -10 -44 -24 -91 -32 -105 -64&#10;-116 -82 -196 -67 -297 6 -37 9 -69 8 -71 -1 -1 -24 12 -51 30 -84 56 -104&#10;134 -63 243 23 62 19 91 -16 107 -34 16 -63 -6 -92 -69 -53 -116 -25 -243 74&#10;-333 l55 -50 -342 0 c-269 0 -341 -3 -338 -12 4 -10 97 -13 424 -13 367 0 419&#10;2 417 15 -1 8 -12 42 -24 75 -41 112 -26 260 35 339 13 17 26 53 30 79 4 26&#10;16 76 28 110 32 99 146 311 200 373 48 55 78 105 93 154 4 14 29 48 55 75 26&#10;28 49 57 52 65 9 25 22 1 23 -40 0 -28 5 -42 16 -45 9 -3 30 -23 47 -44 18&#10;-22 47 -44 67 -51 66 -22 39 -56 -57 -71 -77 -12 -105 -30 -125 -76 -13 -32&#10;-13 -43 1 -99 23 -92 21 -204 -5 -265 -12 -27 -25 -49 -29 -49 -13 0 -30 50&#10;-30 88 0 49 -28 102 -65 121 -16 9 -41 24 -55 34 -36 25 -50 21 -50 -13 0 -23&#10;-12 -42 -46 -76 -43 -42 -46 -48 -37 -77 6 -23 17 -35 40 -42 18 -6 34 -13 37&#10;-16 3 -3 -3 -31 -14 -62 -26 -74 -25 -85 9 -138 39 -59 44 -92 31 -191 -9 -68&#10;-15 -87 -35 -103 -47 -39 -19 -81 45 -69 34 7 55 39 75 114 l12 45 21 -35 c21&#10;-33 21 -36 4 -47 -34 -24 -42 -34 -42 -53 0 -28 67 -31 569 -28 344 2 445 6&#10;449 16 3 9 -73 12 -358 12 l-362 0 55 53 c98 93 103 190 14 300 -48 58 -59 83&#10;-51 112 12 50 77 71 121 40 31 -22 43 2 13 27 -54 44 -152 5 -166 -67 -7 -38&#10;2 -57 62 -138 24 -32 46 -74 50 -93 9 -48 -10 -108 -47 -147 l-29 -32 7 30&#10;c13 50 7 139 -12 176 -10 19 -58 76 -106 127 l-88 93 24 47 c45 90 51 210 16&#10;328 -21 74 4 100 120 124 39 7 64 19 83 39 37 39 29 60 -34 89 -31 14 -56 34&#10;-65 51 -8 16 -21 31 -30 34 -8 4 -15 18 -15 32 0 31 -21 73 -48 98 -20 19 -21&#10;18 -32 -23z m-116 -632 c9 -12 16 -41 16 -63 1 -64 31 -115 132 -221 100 -104&#10;121 -135 132 -197 8 -43 -15 -137 -38 -156 -22 -19 -117 -30 -177 -21 -29 4&#10;-46 8 -36 9 29 2 42 43 23 78 -18 37 -65 93 -76 93 -4 0 -10 -17 -14 -37 -11&#10;-68 -27 -114 -47 -134 -29 -29 -42 -23 -19 9 24 32 45 166 36 232 -3 24 -18&#10;61 -33 82 -30 44 -32 84 -7 139 22 50 13 87 -24 95 -15 4 -33 13 -39 22 -11&#10;13 -5 23 38 64 27 26 48 52 45 57 -12 20 74 -30 88 -51z m-524 -255 c0 -5 -9&#10;-32 -20 -61 -23 -61 -26 -139 -6 -185 19 -44 71 -92 129 -117 51 -22 61 -40&#10;24 -40 -67 0 -168 82 -202 164 -28 66 -14 184 26 233 12 14 49 18 49 6z"/>
<path d="M1370 2026 c0 -179 1 -186 20 -186 18 0 20 7 20 69 l0 70 45 7 c60 8&#10;75 31 75 110 0 86 -18 106 -99 112 l-61 4 0 -186z"/>
<path d="M1640 2025 l0 -185 75 0 c68 0 75 2 75 20 0 18 -7 20 -55 20 l-55 0&#10;0 65 0 65 45 0 c33 0 45 4 45 15 0 11 -12 15 -45 15 l-45 0 0 65 0 65 55 0&#10;c48 0 55 2 55 20 0 18 -7 20 -75 20 l-75 0 0 -185z"/>
<path d="M1890 2190 c0 -16 7 -20 30 -20 l30 0 0 -165 0 -165 25 0 25 0 0 165&#10;0 165 30 0 c23 0 30 4 30 20 0 18 -7 20 -85 20 -78 0 -85 -2 -85 -20z"/>
<path d="M2320 2025 c0 -177 1 -185 20 -185 17 0 19 8 22 83 l3 82 43 3 42 3&#10;0 -85 c0 -79 2 -86 20 -86 19 0 20 7 20 185 0 178 -1 185 -20 185 -18 0 -20&#10;-7 -20 -85 l0 -85 -45 0 -45 0 0 85 c0 78 -2 85 -20 85 -19 0 -20 -7 -20 -185z"/>
<path d="M2665 2188 c-8 -34 -65 -332 -65 -340 0 -5 9 -8 20 -8 14 0 20 7 20&#10;23 0 38 14 49 61 45 40 -3 44 -6 49 -33 4 -21 12 -31 27 -33 21 -3 21 -3 7 70&#10;-8 40 -24 124 -35 186 -21 112 -21 112 -50 112 -21 0 -30 -6 -34 -22z"/>
<path d="M2900 2189 c0 -12 14 -96 31 -186 l32 -164 30 3 31 3 33 175 c18 96&#10;33 178 33 183 0 4 -8 7 -18 7 -15 0 -23 -23 -48 -157 l-30 -158 -30 155 c-24&#10;124 -33 155 -47 158 -12 2 -17 -3 -17 -19z"/>
<path d="M3200 2025 l0 -185 75 0 c68 0 75 2 75 20 0 18 -7 20 -55 20 l-55 0&#10;0 65 0 65 45 0 c33 0 45 4 45 15 0 11 -12 15 -45 15 l-45 0 0 65 0 65 56 0&#10;c47 0 55 3 52 18 -3 14 -16 18 -76 20 l-72 3 0 -186z"/>
<path d="M3460 2025 c0 -156 2 -185 15 -185 12 0 15 25 17 143 l3 142 46 -140&#10;c39 -118 49 -140 67 -143 22 -3 22 -2 22 183 0 172 -1 186 -17 183 -16 -3 -19&#10;-19 -23 -122 l-5 -119 -38 122 c-35 112 -39 121 -62 121 l-25 0 0 -185z"/>
</g>
</svg>